HIERARCHY
ROOT Hips
{
  OFFSET 126.96 91.9987 35.2002
  CHANNELS 6 Xposition Yposition Zposition Zrotation Xrotation Yrotation
  JOINT RightUpLeg
  {
    OFFSET -9.21262 -1.62705 0.0892923
    CHANNELS 3 Zrotation Xrotation Yrotation
    JOINT RightLeg
    {
      OFFSET 0.0960154 -41.8606 0.153467
      CHANNELS 3 Zrotation Xrotation Yrotation
      JOINT RightFoot
      {
        OFFSET 1.33859 -39.7491 3.70458
        CHANNELS 3 Zrotation Xrotation Yrotation
        End Site
        {
          OFFSET 0 -7.69 17.5
        }
      }
    }
  }
  JOINT LeftUpLeg
  {
    OFFSET 9.28909 -1.62806 0.0108209
    CHANNELS 3 Zrotation Xrotation Yrotation
    JOINT LeftLeg
    {
      OFFSET 0.0929201 -41.8886 0.0218006
      CHANNELS 3 Zrotation Xrotation Yrotation
      JOINT LeftFoot
      {
        OFFSET -1.57781 -41.3397 -3.31563
        CHANNELS 3 Zrotation Xrotation Yrotation
        End Site
        {
          OFFSET 0 -7.69 17.5
        }
      }
    }
  }
  JOINT Spine
  {
    OFFSET 0.0128959 14.3037 0.0259321
    CHANNELS 3 Zrotation Xrotation Yrotation
    JOINT Spine1
    {
      OFFSET 0.0143034 9.71252 0.015398
      CHANNELS 3 Zrotation Xrotation Yrotation
      JOINT Spine2
      {
        OFFSET 0.0468817 10.117 -0.0314137
        CHANNELS 3 Zrotation Xrotation Yrotation
        JOINT Spine3
        {
          OFFSET 0.0102655 9.71178 0.00221616
          CHANNELS 3 Zrotation Xrotation Yrotation
          JOINT Neck
          {
            OFFSET -0.0402596 10.3794 0.0231037
            CHANNELS 3 Zrotation Xrotation Yrotation
            JOINT Head
            {
              OFFSET -0.03453 9.49168 0.0708427
              CHANNELS 3 Zrotation Xrotation Yrotation
              End Site
              {
                OFFSET 0 15.95 0
              }
            }
          }
          JOINT RightShoulder
          {
            OFFSET -3.17991 6.93495 0.0309862
            CHANNELS 3 Zrotation Xrotation Yrotation
            JOINT RightArm
            {
              OFFSET -12.8253 0.0342167 0.035901
              CHANNELS 3 Zrotation Xrotation Yrotation
              JOINT RightForeArm
              {
                OFFSET -26.4423 -0.000685918 0.00421057
                CHANNELS 3 Zrotation Xrotation Yrotation
                JOINT RightHand
                {
                  OFFSET -25.9842 -0.0662606 -0.0268032
                  CHANNELS 3 Zrotation Xrotation Yrotation
                  JOINT RightHandThumb1
                  {
                    OFFSET -2.48905 0.190105 3.12053
                    CHANNELS 3 Zrotation Xrotation Yrotation
                    JOINT RightHandThumb2
                    {
                      OFFSET -3.68274 0 0
                      CHANNELS 3 Zrotation Xrotation Yrotation
                      JOINT RightHandThumb3
                      {
                        OFFSET -2.55832 0 0
                        CHANNELS 3 Zrotation Xrotation Yrotation
                        End Site
                        {
                          OFFSET -2.194 0 0
                        }
                      }
                    }
                  }
                  JOINT RightInHandIndex
                  {
                    OFFSET -3.22368 0.508421 1.97842
                    CHANNELS 3 Zrotation Xrotation Yrotation
                    JOINT RightHandIndex1
                    {
                      OFFSET -5.21684 -0.091368 0.999158
                      CHANNELS 3 Zrotation Xrotation Yrotation
                      JOINT RightHandIndex2
                      {
                        OFFSET -3.61937 0 0
                        CHANNELS 3 Zrotation Xrotation Yrotation
                        JOINT RightHandIndex3
                        {
                          OFFSET -2.0521 0 0
                          CHANNELS 3 Zrotation Xrotation Yrotation
                          End Site
                          {
                            OFFSET -1.805 0 0
                          }
                        }
                      }
                    }
                  }
                  JOINT RightInHandMiddle
                  {
                    OFFSET -3.38211 0.517263 0.756737
                    CHANNELS 3 Zrotation Xrotation Yrotation
                    JOINT RightHandMiddle1
                    {
                      OFFSET -5.17411 -0.084 0.313895
                      CHANNELS 3 Zrotation Xrotation Yrotation
                      JOINT RightHandMiddle2
                      {
                        OFFSET -3.94947 0 0
                        CHANNELS 3 Zrotation Xrotation Yrotation
                        JOINT RightHandMiddle3
                        {
                          OFFSET -2.47579 0 0
                          CHANNELS 3 Zrotation Xrotation Yrotation
                          End Site
                          {
                            OFFSET -1.975 0 0
                          }
                        }
                      }
                    }
                  }
                  JOINT RightInHandRing
                  {
                    OFFSET -3.36516 0.537895 -0.128947
                    CHANNELS 3 Zrotation Xrotation Yrotation
                    JOINT RightHandRing1
                    {
                      OFFSET -4.63474 -0.022105 -0.478947
                      CHANNELS 3 Zrotation Xrotation Yrotation
                      JOINT RightHandRing2
                      {
                        OFFSET -3.44238 0 0
                        CHANNELS 3 Zrotation Xrotation Yrotation
                        JOINT RightHandRing3
                        {
                          OFFSET -2.3881 0 0
                          CHANNELS 3 Zrotation Xrotation Yrotation
                          End Site
                          {
                            OFFSET -1.857 0 0
                          }
                        }
                      }
                    }
                  }
                  JOINT RightInHandPinky
                  {
                    OFFSET -3.16105 0.469368 -1.20179
                    CHANNELS 3 Zrotation Xrotation Yrotation
                    JOINT RightHandPinky1
                    {
                      OFFSET -4.14105 -0.022105 -1.09053
                      CHANNELS 3 Zrotation Xrotation Yrotation
                      JOINT RightHandPinky2
                      {
                        OFFSET -2.75653 0 0
                        CHANNELS 3 Zrotation Xrotation Yrotation
                        JOINT RightHandPinky3
                        {
                          OFFSET -1.74189 0 0
                          CHANNELS 3 Zrotation Xrotation Yrotation
                          End Site
                          {
                            OFFSET -1.645 0 0
                          }
                        }
                      }
                    }
                  }
                }
              }
            }
          }
          JOINT LeftShoulder
          {
            OFFSET 3.21113 6.90952 -0.0469957
            CHANNELS 3 Zrotation Xrotation Yrotation
            JOINT LeftArm
            {
              OFFSET 12.7919 -0.0331125 -0.0859637
              CHANNELS 3 Zrotation Xrotation Yrotation
              JOINT LeftForeArm
              {
                OFFSET 26.4755 -0.0026531 -0.0242133
                CHANNELS 3 Zrotation Xrotation Yrotation
                JOINT LeftHand
                {
                  OFFSET 25.9936 -0.03295 -0.105102
                  CHANNELS 3 Zrotation Xrotation Yrotation
                  JOINT LeftHandThumb1
                  {
                    OFFSET 2.48905 0.190105 3.12053
                    CHANNELS 3 Zrotation Xrotation Yrotation
                    JOINT LeftHandThumb2
                    {
                      OFFSET 3.68274 0 0
                      CHANNELS 3 Zrotation Xrotation Yrotation
                      JOINT LeftHandThumb3
                      {
                        OFFSET 2.55832 0 0
                        CHANNELS 3 Zrotation Xrotation Yrotation
                        End Site
                        {
                          OFFSET 2.194 0 0
                        }
                      }
                    }
                  }
                  JOINT LeftInHandIndex
                  {
                    OFFSET 3.22368 0.508421 1.97842
                    CHANNELS 3 Zrotation Xrotation Yrotation
                    JOINT LeftHandIndex1
                    {
                      OFFSET 5.21684 -0.091368 0.999158
                      CHANNELS 3 Zrotation Xrotation Yrotation
                      JOINT LeftHandIndex2
                      {
                        OFFSET 3.61937 0 0
                        CHANNELS 3 Zrotation Xrotation Yrotation
                        JOINT LeftHandIndex3
                        {
                          OFFSET 2.0521 0 0
                          CHANNELS 3 Zrotation Xrotation Yrotation
                          End Site
                          {
                            OFFSET 1.805 0 0
                          }
                        }
                      }
                    }
                  }
                  JOINT LeftInHandMiddle
                  {
                    OFFSET 3.38211 0.517263 0.756737
                    CHANNELS 3 Zrotation Xrotation Yrotation
                    JOINT LeftHandMiddle1
                    {
                      OFFSET 5.17411 -0.084 0.313895
                      CHANNELS 3 Zrotation Xrotation Yrotation
                      JOINT LeftHandMiddle2
                      {
                        OFFSET 3.94947 0 0
                        CHANNELS 3 Zrotation Xrotation Yrotation
                        JOINT LeftHandMiddle3
                        {
                          OFFSET 2.47579 0 0
                          CHANNELS 3 Zrotation Xrotation Yrotation
                          End Site
                          {
                            OFFSET 1.975 0 0
                          }
                        }
                      }
                    }
                  }
                  JOINT LeftInHandRing
                  {
                    OFFSET 3.36516 0.537895 -0.128947
                    CHANNELS 3 Zrotation Xrotation Yrotation
                    JOINT LeftHandRing1
                    {
                      OFFSET 4.63474 -0.022105 -0.478947
                      CHANNELS 3 Zrotation Xrotation Yrotation
                      JOINT LeftHandRing2
                      {
                        OFFSET 3.44238 0 0
                        CHANNELS 3 Zrotation Xrotation Yrotation
                        JOINT LeftHandRing3
                        {
                          OFFSET 2.3881 0 0
                          CHANNELS 3 Zrotation Xrotation Yrotation
                          End Site
                          {
                            OFFSET 1.857 0 0
                          }
                        }
                      }
                    }
                  }
                  JOINT LeftInHandPinky
                  {
                    OFFSET 3.16105 0.469368 -1.20179
                    CHANNELS 3 Zrotation Xrotation Yrotation
                    JOINT LeftHandPinky1
                    {
                      OFFSET 4.14105 -0.022105 -1.09053
                      CHANNELS 3 Zrotation Xrotation Yrotation
                      JOINT LeftHandPinky2
                      {
                        OFFSET 2.75653 0 0
                        CHANNELS 3 Zrotation Xrotation Yrotation
                        JOINT LeftHandPinky3
                        {
                          OFFSET 1.74189 0 0
                          CHANNELS 3 Zrotation Xrotation Yrotation
                          End Site
                          {
                            OFFSET 1.645 0 0
                          }
                        }
                      }
                    }
                  }
                }
              }
            }
          }
        }
      }
    }
  }
}
MOTION
Frames:	7
Frame Time:	0.00833333
151.047 89.1901 29.468 32.2675 -25.7623 -136.57 6.80388 -67.0551 21.3154 3.46618 19.2238 8.9814 9.2986 5.3935 1.41769 41.9988 -48.9181 50.749 0.0871564 19.0156 12.4646 -11.3321 4.82471 -3.95967 -8.85855 12.6042 11.9691 -1.96523 3.76111 2.73479 -3.30884 6.41691 4.45956 -0.051013 -0.533144 -0.39594 -0.051004 -0.531605 -0.392853 -1.44435 -9.32742 -6.75981 2.94489 -3.86296 7.81289 54.6699 3.27547 84.4076 6.19364 -41.1269 -16.8839 10.9193 -24.6842 6.1049 28.184 10.7294 19.1592 1.61481e-15 0 -10 2.6688e-15 -3.18055e-15 -10 1.59028e-15 6.36111e-15 1.59028e-15 19.9818 0.871897 2.3964 24 -1.59028e-15 -6.36111e-15 20 5.96354e-16 -6.36111e-15 1.59028e-15 6.36111e-15 1.59028e-15 20 -3.18055e-15 3.18055e-15 24 3.18055e-15 3.18055e-15 20 -1.9133e-15 -0 1.59028e-15 6.36111e-15 1.59028e-15 19.9748 -1.02565 -2.81938 24 2.38542e-15 -0 20 -3.97569e-16 6.36111e-15 1.59028e-15 6.36111e-15 1.59028e-15 19.7815 -3.00948 -8.30515 24 5.56597e-15 3.18055e-15 20 7.95139e-16 -3.18055e-15 -11.553 -12.4492 -21.0346 -2.12745 39.8044 -87.0443 171.959 -62.2009 160.725 -1.29666 32.3371 20.6147 -28.184 10.7294 -19.1592 -1.13713e-14 9.54166e-15 10 -5.60818e-16 3.18055e-15 10 -2.20695e-32 -3.18055e-15 -3.97569e-16 -19.9818 0.871897 -2.3964 -24 -9.54166e-15 -1.27222e-14 -20 6.36111e-15 -3.18055e-15 -2.20695e-32 -3.18055e-15 -3.97569e-16 -20 6.36111e-15 7.95139e-15 -24 -3.18055e-15 -3.18055e-15 -20 1.59028e-15 -6.36111e-15 -2.20695e-32 -3.18055e-15 -3.97569e-16 -19.9748 -1.02565 2.81938 -24 3.18055e-15 -9.54166e-15 -20 7.95139e-15 -1.59028e-14 -2.20695e-32 -3.18055e-15 -3.97569e-16 -19.7815 -3.00948 8.30515 -24 -6.36111e-15 -6.36111e-15 -20 6.36111e-15 3.18055e-15 
151.047 89.1857 29.4605 32.238 -25.7599 -136.612 6.88863 -67.0414 21.405 3.45229 19.2449 9.00451 9.29631 5.39529 1.41572 42.0276 -48.8673 50.773 0.0661562 19.0423 12.4865 -11.3457 4.81165 -3.97425 -8.85826 12.6036 11.9704 -1.96515 3.76003 2.7346 -3.3089 6.41595 4.46011 -0.0526563 -0.532394 -0.395602 -0.0526494 -0.530869 -0.392509 -1.46453 -9.30576 -6.73839 2.95543 -3.8504 7.81521 54.6503 3.30379 84.3889 6.17486 -41.1659 -16.8632 10.9044 -24.6819 6.0989 28.184 10.7294 19.1592 -4.91207e-15 -9.54166e-15 -10 8.56722e-15 -6.36111e-15 -10 1.59028e-15 0 1.59028e-15 19.9818 0.871897 2.3964 24 0 -1.59028e-14 20 1.39149e-15 3.18055e-15 1.59028e-15 0 1.59028e-15 20 -3.18055e-15 -6.36111e-15 24 -1.59028e-15 6.36111e-15 20 3.78312e-15 9.54166e-15 1.59028e-15 0 1.59028e-15 19.9748 -1.02565 -2.81938 24 -2.38542e-15 1.27222e-14 20 -3.18055e-15 -6.36111e-15 1.59028e-15 0 1.59028e-15 19.7815 -3.00948 -8.30515 24 -7.95139e-16 3.18055e-15 20 0 3.18055e-15 -11.5604 -12.4362 -21.0235 -2.12151 39.8169 -87.051 171.892 -62.2258 160.643 -1.27216 32.3968 20.5717 -28.184 10.7294 -19.1592 1.88169e-14 3.18055e-15 10 -2.10798e-15 -6.36111e-15 10 7.95139e-16 -3.18055e-15 -3.18055e-15 -19.9818 0.871897 -2.3964 -24 -9.54166e-15 -9.54166e-15 -20 3.18055e-15 3.18055e-15 7.95139e-16 -3.18055e-15 -3.18055e-15 -20 -3.18055e-15 -1.59028e-15 -24 -3.18055e-15 -1.27222e-14 -20 3.18055e-15 -6.36111e-15 7.95139e-16 -3.18055e-15 -3.18055e-15 -19.9748 -1.02565 2.81938 -24 -3.18055e-15 -3.18055e-15 -20 1.59028e-15 -3.18055e-15 7.95139e-16 -3.18055e-15 -3.18055e-15 -19.7815 -3.00948 8.30515 -24 0 -1.90833e-14 -20 -3.18055e-15 -3.18055e-15 
151.046 89.1816 29.4534 32.1759 -25.7616 -136.704 7.02431 -67.0002 21.5655 3.4306 19.2558 9.032 9.29371 5.40111 1.41516 42.0338 -48.7905 50.8257 0.0620773 19.0704 12.4892 -11.3591 4.79707 -3.98605 -8.883 12.6016 11.9985 -1.96511 3.75892 2.73448 -3.31 6.41512 4.46952 -0.0544929 -0.531727 -0.395248 -0.0544883 -0.530214 -0.392148 -1.49389 -9.27912 -6.71583 2.97312 -3.83923 7.81851 54.6397 3.33591 84.3725 6.15756 -41.2144 -16.8346 10.8942 -24.7057 6.11535 28.184 10.7294 19.1592 6.52688e-15 9.54166e-15 -10 5.60818e-16 3.18055e-15 -10 -3.97569e-15 3.18055e-15 1.59028e-15 19.9818 0.871897 2.3964 24 6.36111e-15 -1.90833e-14 20 2.18663e-15 9.54166e-15 -3.97569e-15 3.18055e-15 1.59028e-15 20 -3.18055e-15 -3.18055e-15 24 -6.36111e-15 1.59028e-14 20 -5.40446e-16 -3.18055e-15 -3.97569e-15 3.18055e-15 1.59028e-15 19.9748 -1.02565 -2.81938 24 0 -9.54166e-15 20 5.1684e-15 1.27222e-14 -3.97569e-15 3.18055e-15 1.59028e-15 19.7815 -3.00948 -8.30515 24 0 6.36111e-15 20 -3.18055e-15 3.18055e-15 -11.5593 -12.4232 -21.0159 -2.11694 39.8302 -87.0576 171.805 -62.2656 160.536 -1.26303 32.4552 20.5375 -28.184 10.7294 -19.1592 1.40401e-14 -6.36111e-15 10 1.68245e-15 -9.54166e-15 10 -1.59028e-15 0 2.78299e-15 -19.9818 0.871897 -2.3964 -24 -6.36111e-15 2.8625e-14 -20 -3.18055e-15 1.27222e-14 -1.59028e-15 0 2.78299e-15 -20 3.18055e-15 1.11319e-14 -24 -3.18055e-15 1.27222e-14 -20 0 2.8625e-14 -1.59028e-15 0 2.78299e-15 -19.9748 -1.02565 2.81938 -24 -6.36111e-15 1.27222e-14 -20 0 1.90833e-14 -1.59028e-15 0 2.78299e-15 -19.7815 -3.00948 8.30515 -24 -6.36111e-15 1.90833e-14 -20 -7.95139e-15 1.90833e-14 
151.046 89.1779 29.4478 32.156 -25.7647 -136.739 7.10329 -66.9911 21.6334 3.41038 19.2662 9.06276 9.29139 5.40809 1.411 42.0443 -48.7705 50.857 0.0697884 19.1042 12.4833 -11.3735 4.7739 -3.9871 -8.87878 12.5992 11.9948 -1.96512 3.75759 2.73447 -3.31001 6.41441 4.46855 -0.0563337 -0.53116 -0.394884 -0.0563315 -0.529658 -0.391778 -1.53046 -9.26109 -6.6921 2.98299 -3.82928 7.82384 54.6279 3.36815 84.3565 6.1289 -41.2769 -16.8114 10.8712 -24.7248 6.1168 28.184 10.7294 19.1592 8.07405e-15 0 -10 3.22962e-15 0 -10 -2.38542e-15 -6.36111e-15 1.59028e-15 19.9818 0.871897 2.3964 24 -3.18055e-15 -0 20 5.96354e-16 3.18055e-15 -2.38542e-15 -6.36111e-15 1.59028e-15 20 0 -3.18055e-15 24 -3.18055e-15 -3.18055e-15 20 -7.76503e-17 9.54166e-15 -2.38542e-15 -6.36111e-15 1.59028e-15 19.9748 -1.02565 -2.81938 24 0 -9.54166e-15 20 7.95139e-16 3.18055e-15 -2.38542e-15 -6.36111e-15 1.59028e-15 19.7815 -3.00948 -8.30515 24 7.15625e-15 -0 20 1.59028e-15 3.18055e-15 -11.57 -12.4105 -21.0064 -2.11145 39.8384 -87.0632 171.706 -62.3222 160.426 -1.26788 32.5104 20.5279 -28.184 10.7294 -19.1592 1.67089e-14 -3.18055e-15 10 1.68245e-15 -9.54166e-15 10 3.18055e-15 -6.36111e-15 -5.56597e-15 -19.9818 0.871897 -2.3964 -24 -6.36111e-15 2.8625e-14 -20 -1.59028e-15 2.22639e-14 3.18055e-15 -6.36111e-15 -5.56597e-15 -20 -6.36111e-15 7.95139e-15 -24 -9.54166e-15 9.54166e-15 -20 -1.59028e-15 6.36111e-15 3.18055e-15 -6.36111e-15 -5.56597e-15 -19.9748 -1.02565 2.81938 -24 -9.54166e-15 3.18055e-14 -20 -3.18055e-15 1.27222e-14 3.18055e-15 -6.36111e-15 -5.56597e-15 -19.7815 -3.00948 8.30515 -24 -1.27222e-14 1.90833e-14 -20 -4.77083e-15 1.59028e-14 
151.046 89.1739 29.4433 32.1346 -25.7703 -136.784 7.19134 -66.9781 21.7229 3.39889 19.2733 9.08956 9.28917 5.41568 1.4065 42.059 -48.7435 50.8991 0.0773444 19.1297 12.4745 -11.385 4.75955 -3.9908 -8.87794 12.5918 11.9963 -1.96547 3.75596 2.73489 -3.31085 6.41354 4.46979 -0.0579895 -0.530705 -0.39452 -0.0579895 -0.529214 -0.391407 -1.55658 -9.25007 -6.6787 2.99723 -3.81644 7.82848 54.6188 3.40002 84.3367 6.1 -41.35 -16.7818 10.8529 -24.7515 6.12772 28.184 10.7294 19.1592 -4.35126e-15 -6.36111e-15 -10 1.61481e-15 0 -10 -7.95139e-16 0 -0 19.9818 0.871897 2.3964 24 0 6.36111e-15 20 2.5842e-15 9.54166e-15 -7.95139e-16 0 -0 20 6.36111e-15 -0 24 -1.59028e-15 -3.18055e-15 20 1.35111e-15 -6.36111e-15 -7.95139e-16 0 -0 19.9748 -1.02565 -2.81938 24 -8.74653e-15 6.36111e-15 20 -3.57812e-15 -0 -7.95139e-16 0 -0 19.7815 -3.00948 -8.30515 24 1.59028e-15 -0 20 2.38542e-15 3.18055e-15 -11.5746 -12.4 -20.9978 -2.11864 39.8469 -87.0556 171.621 -62.3856 160.34 -1.28345 32.5727 20.5253 -28.184 10.7294 -19.1592 3.22962e-15 0 10 -5.89842e-15 -3.18055e-15 10 -6.62086e-31 6.36111e-15 5.96354e-15 -19.9818 0.871897 -2.3964 -24 0 -1.27222e-14 -20 -1.59028e-15 9.54166e-15 -6.62086e-31 6.36111e-15 5.96354e-15 -20 -3.18055e-15 1.43125e-14 -24 -3.18055e-15 3.18055e-15 -20 0 -0 -6.62086e-31 6.36111e-15 5.96354e-15 -19.9748 -1.02565 2.81938 -24 0 6.36111e-15 -20 3.18055e-15 -9.54166e-15 -6.62086e-31 6.36111e-15 5.96354e-15 -19.7815 -3.00948 8.30515 -24 3.18055e-15 -3.18055e-15 -20 0 -9.54166e-15 
151.045 89.1701 29.4379 32.1101 -25.7757 -136.832 7.28433 -66.9642 21.8178 3.38435 19.2803 9.11615 9.28591 5.42238 1.4031 42.0762 -48.7063 50.9494 0.0793175 19.1531 12.4612 -11.3946 4.74364 -3.99463 -8.87828 12.5859 11.9985 -1.96627 3.75522 2.73578 -3.31228 6.41201 4.4712 -0.0592706 -0.5303 -0.394162 -0.0592726 -0.528819 -0.391043 -1.57461 -9.24215 -6.66364 3.0046 -3.80356 7.83585 54.6192 3.43157 84.3136 6.0665 -41.4362 -16.7463 10.8343 -24.7819 6.1404 28.184 10.7294 19.1592 0 0 -10 5.60818e-16 3.18055e-15 -10 -1.59028e-15 -3.18055e-15 1.59028e-15 19.9818 0.871897 2.3964 24 0 6.36111e-15 20 -1.19271e-15 -6.36111e-15 -1.59028e-15 -3.18055e-15 1.59028e-15 20 3.18055e-15 6.36111e-15 24 6.36111e-15 6.36111e-15 20 -4.93079e-15 6.36111e-15 -1.59028e-15 -3.18055e-15 1.59028e-15 19.9748 -1.02565 -2.81938 24 -2.38542e-15 -3.18055e-15 20 7.95139e-16 1.90833e-14 -1.59028e-15 -3.18055e-15 1.59028e-15 19.7815 -3.00948 -8.30515 24 1.59028e-15 6.36111e-15 20 -7.95139e-16 6.36111e-15 -11.5824 -12.3888 -20.989 -2.12861 39.8572 -87.0453 171.536 -62.4686 160.252 -1.30241 32.6142 20.5298 -28.184 10.7294 -19.1592 7.02006e-15 -3.18055e-15 10 3.72279e-15 6.36111e-15 10 -1.59028e-15 -9.54166e-15 1.98785e-15 -19.9818 0.871897 -2.3964 -24 -3.18055e-15 3.18055e-15 -20 6.36111e-15 1.59028e-14 -1.59028e-15 -9.54166e-15 1.98785e-15 -20 3.18055e-15 -1.59028e-15 -24 0 -0 -20 -3.18055e-15 -3.18055e-15 -1.59028e-15 -9.54166e-15 1.98785e-15 -19.9748 -1.02565 2.81938 -24 -3.18055e-15 -3.18055e-15 -20 0 -0 -1.59028e-15 -9.54166e-15 1.98785e-15 -19.7815 -3.00948 8.30515 -24 0 1.59028e-14 -20 -1.59028e-15 3.18055e-15 
151.045 89.1677 29.4321 32.0783 -25.7849 -136.893 7.40742 -66.9461 21.9412 3.36246 19.2754 9.14915 9.28046 5.43654 1.40152 42.0904 -48.6593 51.0046 0.0875796 19.1797 12.4495 -11.4152 4.72186 -3.99662 -8.88147 12.579 12.003 -1.9674 3.75452 2.73706 -3.31401 6.40886 4.47273 -0.0600385 -0.529924 -0.393819 -0.0600421 -0.528451 -0.390693 -1.5988 -9.23589 -6.64814 3.00936 -3.78558 7.83994 54.6222 3.47283 84.2991 6.02874 -41.5315 -16.7054 10.8044 -24.8278 6.14625 28.184 10.7294 19.1592 3.22962e-15 0 -10 -2.6688e-15 3.18055e-15 -10 7.95139e-16 0 3.18055e-15 19.9818 0.871897 2.3964 24 1.59028e-15 1.27222e-14 20 -4.37326e-15 -3.18055e-15 7.95139e-16 0 3.18055e-15 20 3.18055e-15 3.18055e-15 24 -1.59028e-15 6.36111e-15 20 -3.19919e-16 -3.18055e-15 7.95139e-16 0 3.18055e-15 19.9748 -1.02565 -2.81938 24 -3.97569e-15 -0 20 -1.19271e-15 -0 7.95139e-16 0 3.18055e-15 19.7815 -3.00948 -8.30515 24 3.97569e-15 3.18055e-15 20 -7.95139e-16 -0 -11.5904 -12.3769 -20.9789 -2.14259 39.8663 -87.0244 171.446 -62.5837 160.164 -1.32829 32.6267 20.5418 -28.184 10.7294 -19.1592 8.56722e-15 6.36111e-15 10 4.84443e-15 0 10 -7.95139e-16 0 -3.97569e-16 -19.9818 0.871897 -2.3964 -24 -9.54166e-15 -3.18055e-15 -20 4.77083e-15 -0 -7.95139e-16 0 -3.97569e-16 -20 9.54166e-15 3.18055e-15 -24 3.18055e-15 -9.54166e-15 -20 4.77083e-15 1.27222e-14 -7.95139e-16 0 -3.97569e-16 -19.9748 -1.02565 2.81938 -24 0 3.18055e-15 -20 0 6.36111e-15 -7.95139e-16 0 -3.97569e-16 -19.7815 -3.00948 8.30515 -24 3.18055e-15 9.54166e-15 -20 3.18055e-15 -3.18055e-15 
